<svg id="a5af7471-c2cf-4d78-966d-c47974bc5271" data-name="Layer 1" xmlns="http://www.w3.org/2000/svg" viewBox="0 0 180.21 180.81"><title>Untitled-1</title><path d="M232.47,373.85c8.85-.73,14.09,6.65,10.43,14.67-2.38,5.22-1.62,6.63,4.12,7.52,4,.62,7.42,2.68,7.82,6.58a16,16,0,0,1-2.25,10c-3.74,5.39-3.71,5.58,1.34,9.43,2.57,2,5.14,5.82,5.11,8.79s-2.72,6.71-5.33,8.64c-4.84,3.57-4.91,4-1.4,9.13a16.06,16.06,0,0,1,2.35,10c-.41,3.81-3.7,6-7.74,6.71-6.48,1.14-6.93,2.08-4.19,8.12,1.67,3.67,1.52,7.17-1,10.34a9.62,9.62,0,0,1-10.14,3.79c-5.06-1-6.59.47-5.83,5.75.6,4.17-.49,7.66-3.86,10.17-3.55,2.63-7.31,2.62-11.27.6-4.51-2.3-6-1.44-6.93,3.74-.71,4.1-2.65,7.25-6.67,8.61-4.19,1.42-7.77.1-10.94-2.92-3.87-3.69-5.55-3.34-8.11,1.63-1.94,3.76-4.86,5.84-9.13,5.78s-7.1-2.19-9-6c-2.4-4.84-4.21-5.11-8.14-1.29-3,2.94-6.49,4.14-10.48,2.85-4.18-1.36-6.41-4.45-7.06-8.84-.75-5-2.51-5.95-7-3.8-3.93,1.87-7.74,2.12-11.29-.59s-4.4-6.38-3.58-10.71-1-6.24-5.55-5.35-8-.31-10.57-3.83-2.56-7.31-.48-11.26c2.31-4.36,1.25-6.38-3.8-7-4.3-.51-7.29-2.63-8.58-6.56S83,451.12,85.94,448c3.89-4.15,3.57-5.67-1.49-8.51-3.65-2-5.7-5-5.62-9.29s2.39-7.07,6.07-9c4.57-2.39,5-4.33,1.44-7.84-3.19-3.15-4.36-6.8-3-10.9s4.41-6.3,9-6.76c4.77-.48,5.81-2.76,3.53-7.27-2-4-2.1-7.77.67-11.22s6.21-4.58,10.68-3.48c4.22,1,6.24-1.18,5.31-5.6-.88-4.22.25-7.66,3.47-10.27,3.43-2.79,7.28-2.82,11.25-1,5,2.33,6.41,1.68,7.34-3.82.71-4.16,2.76-7.1,6.78-8.47s7.46.05,10.5,2.81c4.25,3.87,5.47,3.62,8.43-1.63,2-3.62,5.24-6.41,9.24-5.48A16,16,0,0,1,178.1,346c3.5,4.74,4.43,5.34,8.69,1.41,3-2.8,6.38-4.18,10.47-2.66a9.7,9.7,0,0,1,6.79,8.93c.42,4.49,2.73,5.62,6.91,3.85,9.46-4,16.14.73,15.07,10.75C225.49,373.38,226.58,374.33,232.47,373.85Zm-115,119.41c.67,1.88.82,4.62,2.14,5.42s4,.18,5.83-.57c6.7-2.78,13.08.41,14.59,7.33.42,1.91,1.51,4.92,2.71,5.14,1.75.31,4.18-1.07,5.78-2.39,5.6-4.6,12.54-3.43,16.13,2.75,1,1.64,2.9,3.89,4.26,3.81,1.52-.1,3.23-2.32,4.26-4,3.78-6.17,10.67-7.19,16.17-2.44,1.46,1.26,4,2.76,5.33,2.29s2.52-3.13,3-5c1.78-7.19,7.81-10.26,14.5-7.36,1.77.76,4.54,1.55,5.69.72s1.46-3.72,1.28-5.62c-.75-7.73,4.51-12.81,12.14-11.74,1.72.24,4.4-.14,5.19-1.26s.46-3.8-.22-5.44c-3.19-7.74-.25-13.25,8-15.12a7,7,0,0,0,4.44-3.17c.47-1-.81-3.33-1.9-4.53-5.78-6.41-4.68-12.93,2.87-17.2,1.39-.79,3.11-2.57,3.08-3.86s-1.72-3.08-3.12-3.91c-7.6-4.51-8.62-10.66-2.84-17.21,1.08-1.22,2.3-3.55,1.81-4.59-.68-1.44-2.8-2.71-4.51-3.08-7.85-1.72-11-7.71-7.84-14.85.73-1.63,1.42-4.44.63-5.28-1.13-1.2-3.74-1.66-5.57-1.41-7.42,1-13.08-4.61-12-12,.26-1.74.05-4.65-.95-5.21-1.47-.82-4.07-.53-5.81.2-7.14,3-13.16.19-14.81-7.3-1.39-6.32-3.79-7.11-8.53-2.82-5.6,5.06-12.54,3.76-16.29-2.84-.87-1.53-2.63-3.51-4-3.52s-3.24,1.88-4.14,3.39c-4.12,6.91-10.76,8-16.7,2.85-1.34-1.18-3.82-2.66-4.92-2.15-1.5.7-2.71,3.05-3.1,4.9-1.48,7.09-7.75,10.46-14.37,7.64-1.8-.77-3.92-.79-5.89-1.16-.42,2.26-1.33,4.56-1.15,6.78A10.26,10.26,0,0,1,107,380.56c-1.94-.23-5.1-.14-5.71.93-.86,1.52-.37,4.29.4,6.18,2.76,6.72-.42,12.89-7.48,14.45-1.88.41-4.51,1.57-5,3s.91,3.94,2.16,5.4c4.81,5.65,3.56,12.72-2.92,16.41-1.51.86-3.45,2.68-3.43,4s1.91,3.23,3.43,4.13c6.76,4,7.8,10.82,2.59,16.74-1.15,1.32-2.34,3.68-1.89,5s2.8,2.57,4.52,2.94c7.81,1.68,10.81,7.61,7.55,15-.72,1.61-1.22,4.2-.41,5.33s3.46,1.53,5.16,1.28C113.72,480.27,119,485.18,117.42,493.26Z" transform="translate(-78.83 -340.15)"/></svg>